# Blender 4.3.0
# www.blender.org
mtllib Celluvoyer_0_1.mtl
o Cylinder
v 0.086603 -0.100000 0.050000
v 0.086603 0.100000 0.050000
v 0.000000 -0.100000 0.100000
v 0.000000 0.100000 0.100000
v -0.086603 -0.100000 0.050000
v -0.086603 0.100000 0.050000
v -0.086603 -0.100000 -0.050000
v -0.086603 0.100000 -0.050000
v -0.000000 -0.100000 -0.100000
v -0.000000 0.100000 -0.100000
v 0.086603 -0.100000 -0.050000
v 0.086603 0.100000 -0.050000
v -0.002823 0.100000 0.068115
v -0.057578 0.100000 0.036503
v -0.039326 0.100000 0.004890
v 0.015428 0.100000 0.036503
v 0.015428 0.100000 -0.036503
v -0.039326 0.100000 -0.004890
v -0.057578 0.100000 -0.036503
v -0.002824 0.100000 -0.068115
v 0.060401 0.100000 0.031612
v 0.023898 0.100000 0.031612
v 0.023898 0.100000 -0.031612
v 0.060401 0.100000 -0.031612
vn 0.5000 -0.0000 0.8660
vn -0.5000 -0.0000 0.8660
vn -1.0000 -0.0000 -0.0000
vn -0.5000 -0.0000 -0.8660
vn 0.5000 -0.0000 -0.8660
vn 1.0000 -0.0000 -0.0000
vn -0.0000 -1.0000 -0.0000
vn -0.0000 1.0000 -0.0000
vt 1.000000 0.500000
vt 1.000000 1.000000
vt 0.833333 1.000000
vt 0.833333 0.500000
vt 0.666667 1.000000
vt 0.666667 0.500000
vt 0.500000 1.000000
vt 0.500000 0.500000
vt 0.333333 1.000000
vt 0.333333 0.500000
vt 0.166667 1.000000
vt 0.166667 0.500000
vt -0.000000 1.000000
vt -0.000000 0.500000
vt 0.750000 0.490000
vt 0.957846 0.370000
vt 0.957846 0.130000
vt 0.750000 0.010000
vt 0.542154 0.130000
vt 0.542154 0.370000
vt 0.000000 0.000000
s 0
f 1/1/1 2/2/1 4/3/1 3/4/1
f 3/4/2 4/3/2 6/5/2 5/6/2
f 5/6/3 6/5/3 8/7/3 7/8/3
f 7/8/4 8/7/4 10/9/4 9/10/4
f 9/10/5 10/9/5 12/11/5 11/12/5
f 11/12/6 12/11/6 2/13/6 1/14/6
f 1/15/7 3/16/7 5/17/7 7/18/7 9/19/7 11/20/7
f 6/5/8 14/21/8 15/21/8 18/21/8 19/21/8 8/7/8
f 10/9/8 8/7/8 19/21/8 20/21/8
f 12/11/8 10/9/8 20/21/8 17/21/8 23/21/8 24/21/8
f 4/3/8 13/21/8 14/21/8 6/5/8
f 2/13/8 12/11/8 24/21/8 21/21/8
f 2/13/8 21/21/8 22/21/8 16/21/8 13/21/8 4/3/8
f 18/21/8 15/21/8 16/21/8 22/21/8 23/21/8 17/21/8
